PathFileType	4	(X/Y/Z)	S240501-1155_P07_T01_0-394.trc
DataRate	CameraRate	NumFrames	NumMarkers	Units	OrigDataRate	OrigDataStartFrame	OrigNumFrames
60	60	14	13	m	60	0	394
Frame#	Time	Nose			LEye			LEar			LShoulder			LElbow			LWrist			LHip			REye			REar			RShoulder			RElbow			RWrist			RHip		
		X1	Y1	Z1	X2	Y2	Z2	X3	Y3	Z3	X4	Y4	Z4	X5	Y5	Z5	X6	Y6	Z6	X7	Y7	Z7	X8	Y8	Z8	X9	Y9	Z9	X10	Y10	Z10	X11	Y11	Z11	X12	Y12	Z12	X13	Y13	Z13
1	0.016666666666666666	-0.058722207694995344	1.6821675299550205	0.15085178515284414	-0.08651667057540077	1.6486756888291716	0.17569229614862442	-0.05312643723450018	1.5967142706708861	0.2764965241836802	0.109588725012642	1.524429379635943	0.241934274772965	0.2678723854928912	1.548256669697261	0.05871620231075919	0.3146735906709115	1.6216917577132688	-0.15430021891049703	0.523848961062989	1.6099254436706822	0.2534169578381286	-0.08784083012294121	1.7087235801391798	0.17431909338289764	-0.06631415574825127	1.7630035211807746	0.2755881471741138	0.1121474974672722	1.8478844937450079	0.3167978617109765	0.34369181398135695	1.9353626789604614	0.2653520273363227	0.325692413358671	1.8977280777414274	0.038155319079447365	0.5434048078914606	1.8221841026026444	0.24467499196070747
2	0.03333333333333333	-0.05747114202045395	1.6829250860337626	0.1497321531967304	-0.08291724201186956	1.6473830939951684	0.17627447742593022	-0.05341003959987889	1.5972080635025057	0.2752169642129534	0.11108087958428461	1.5254987818971526	0.24065501494456926	0.270742547504105	1.547232128941526	0.05704174438259717	0.31324022399748047	1.6213385154899744	-0.15511980486492322	0.5224960505803418	1.6104485752236104	0.25090104436584665	-0.08810076694294541	1.7092059248311045	0.17399931639977578	-0.06656861190012169	1.7631500374380837	0.27513423500584305	0.1109486834645849	1.8458957077326592	0.31807272993156915	0.34346727455329845	1.9361630520207627	0.2648326602618732	0.3251014008645783	1.900151924575863	0.03690218841291278	0.5235080322889187	1.831359827833445	0.25384400450173256
3	0.05	-0.05815618195611434	1.6856963769985276	0.15064972438774044	-0.08529246805506482	1.647662154061442	0.17698147774309958	-0.05247502574957712	1.5979342475538902	0.27515153569397466	0.10862968429158204	1.5243135953363236	0.24665756928482072	0.26880523025351144	1.547030355176392	0.05808896189555502	0.3144054846686064	1.619431669580016	-0.15637774539190094	0.524151594976348	1.6167591567558994	0.25668079227074253	-0.08726479042880488	1.7095940773144536	0.1746275529444008	-0.0673276407840126	1.76307768526987	0.27562894532611343	0.1080681576925893	1.8465118676931171	0.31793244283577093	0.343380373442925	1.9367339477232173	0.2645255140258331	0.32550761811304807	1.8983363562110833	0.03842049453876686	0.5177333952560886	1.8299264603124448	0.253575109352127
4	0.06666666666666667	-0.05810504194837366	1.6855553934242058	0.15407506618160446	-0.08586832512877858	1.649087574534494	0.1751510188296743	-0.05256637656309348	1.5968918475408405	0.2753373316266532	0.1104280669740384	1.5247953534024385	0.24584043761016722	0.26971667917289427	1.5462445080675462	0.05789937298533827	0.31411237947838994	1.6232018836696174	-0.1542045540068613	0.5246032976703634	1.6168681749779732	0.24880374771711758	-0.08821970836814022	1.716379759300696	0.17367494087879934	-0.06842351714392055	1.7628518215570823	0.2756547637021534	0.10973668180462534	1.8480636385941696	0.3156453762293794	0.3389289830548351	1.9331949112470967	0.26533788053640295	0.325076860126688	1.8984490439034594	0.037711450238219306	0.5226611594293938	1.834181533901704	0.2521453882782305
5	0.08333333333333333	-0.05962953617494092	1.685449823348983	0.15056751170897537	-0.08512155396400434	1.6496662139405323	0.17472681166101914	-0.05203525660045479	1.597549827910899	0.27424787192564154	0.10742169587080005	1.5234039893087887	0.24275566322862208	0.27257192841910294	1.5442340310258784	0.05723101583216761	0.3145828339950742	1.623438029850797	-0.1542080165202073	0.5803071710813689	1.615575508140375	0.1441328483266545	-0.08838949790893016	1.7144461780994102	0.17559705218270336	-0.06808035800401468	1.7621600401995205	0.2716320211833014	0.10860570177485125	1.84634833460881	0.3178420755722514	0.34460352334871097	1.936561510158187	0.26452498734160745	0.3238728245378373	1.900726880983706	0.04432058898407241	0.5519220437238788	1.8193370019828805	0.2427341806630566
6	0.1	-0.05998076323527924	1.6845447649185834	0.1507144887970423	-0.08545084803753103	1.6488305428043903	0.1746865830757201	-0.052566522995104725	1.5958465517559965	0.2720982989267646	0.10963597441684883	1.5244832813134621	0.24530088253922744	0.27306035289684705	1.5424413088227724	0.060976494804393565	0.31346165814679283	1.6244836617790326	-0.1524737867545087	0.5822256489318296	1.6125623645201348	0.14651639011090245	-0.0891110118901666	1.7160027005236016	0.17385098017811568	-0.06621279192390579	1.7648785920793186	0.2732512942757996	0.11161901455726206	1.8489490858816884	0.3158140063563089	0.3440656032569666	1.9362075451233347	0.2655547322671411	0.32330936853012265	1.8992388424359659	0.035203968004083916	0.5182291491733813	1.8272160704177878	0.25442398813791184
7	0.11666666666666667	-0.058701568643988754	1.6829075271457312	0.15444392581785849	-0.08640321782034868	1.6490402144817087	0.1769332025254399	-0.054848327956071835	1.598489550436523	0.27466474817993763	0.11202637812838213	1.5291941002470042	0.24634642973309476	0.2727195811402604	1.5401408960533334	0.0601406801647436	0.31340129672901185	1.622929450367736	-0.151459676758829	0.5186294032892188	1.6072956148431516	0.2486132767797652	-0.08871414794078462	1.7138436458183859	0.1739630910040863	-0.06859970482877378	1.765353362983165	0.27426204225961076	0.10912181515744848	1.8469133239045479	0.3154229962614937	0.3464475277736613	1.9353909663069573	0.2692433887019142	0.32473848757965	1.8988037031110228	0.03628010537803004	0.5216658247924499	1.8267633718862222	0.2590647981219397
8	0.13333333333333333	-0.05894938794893287	1.6840204783571329	0.15177211569526747	-0.08526036983238992	1.6504093175069217	0.17440259788797266	-0.054093596679646846	1.6005490605675077	0.26851364748983997	0.10975886909357269	1.5230152276892293	0.24314470923525597	0.27422057020407864	1.5373050340460623	0.06192770549455465	0.31453631787921427	1.6229784254369037	-0.1470249120230347	0.512408685162183	1.6155122496160066	0.24256910052942787	-0.08865971024371969	1.7152629123872543	0.17477294998182363	-0.06806657077306251	1.7620788097326616	0.2747859925527681	0.10676301583858326	1.8455122761431926	0.3167230855288131	0.346301707014902	1.9368106858975633	0.2680920484844113	0.32521716537877265	1.9002200659766033	0.03772328450100505	0.592722844076696	1.7764178280046503	0.27348179950148804
9	0.15	-0.05922058149637836	1.6825772110507187	0.15437631977148633	-0.08523644211302997	1.64938945257836	0.17616612916571633	-0.05474582868986753	1.6010386318623537	0.2711729955617784	0.10866371548528418	1.527482199513771	0.24463600788213594	0.27674988225255615	1.5345192587358878	0.06478647331437443	0.31336124403036103	1.6198636999239708	-0.14454015572336576	0.5174650621676755	1.613730316172899	0.24929794337358374	-0.0904322754924128	1.7136663319868233	0.17728712187846907	-0.06857583722903515	1.765579242013926	0.2756002378963974	0.10923441965296188	1.8471865638700533	0.31452236238507975	0.3460385138705306	1.9344242351748449	0.2648527221243223	0.3248990091069726	1.8995176490980037	0.04190893604639754	0.5834870922291978	1.782282131020967	0.26987599316269173
10	0.16666666666666666	-0.06121973165484496	1.6855956979430735	0.15199457927797064	-0.08584432998529641	1.649996333320094	0.1793604525517759	-0.054566862822128	1.5987045696576734	0.27099526279949016	0.10756266538581383	1.5249407207898757	0.24273869205013923	0.27778321438444376	1.5328415693405357	0.06852087642781785	0.312775865959711	1.6215753911792983	-0.13896751247021408	0.5761738818625705	1.6219551769577623	0.14030334024408556	-0.09168183715582448	1.7163129419801797	0.17161801898662188	-0.06858174333540863	1.768064077610496	0.2715197348442465	0.11056238263061507	1.8473444057679047	0.3121217727505944	0.3452406990714366	1.9348877608093542	0.26515342318698276	0.3219775854092146	1.9040802209099685	0.0410490914895176	0.5756870653028578	1.7902855959446493	0.26137832141892553
11	0.18333333333333332	-0.06178721482566529	1.6866542812707797	0.1538431992692889	-0.08724199087980222	1.648758294884503	0.17548022252505513	-0.05664246903022568	1.598925030619589	0.26769450011814105	0.1094429103938979	1.5254272561872364	0.24111073701797273	0.28093566070706555	1.5281189056422564	0.06984698645666025	0.31096685217592845	1.619472643915562	-0.13647971798434902	0.5741557376685485	1.6013719184118957	0.2145188211673212	-0.08823661293720593	1.7153337871272039	0.17173936243644808	-0.06793894889477907	1.7661518935182108	0.2725161665731942	0.11051975657696121	1.8499076997483614	0.310919140691223	0.3424583026379645	1.9340364972863267	0.26651156622649147	0.32292945875607254	1.9035595764432418	0.04147972421343319	0.5811349510097014	1.7867768053276123	0.27067328957900677
12	0.2	-0.06211224719711302	1.6847834225713059	0.15050152187183496	-0.08551797693268887	1.649831971123672	0.17728850499440427	-0.05484991859545628	1.5998517290049243	0.27071076866788585	0.11018681770481405	1.5235583923286646	0.24465907635452144	0.2835135743249718	1.52628320255852	0.07685634205847308	0.3076596152520734	1.616247741450856	-0.12922564607338938	0.5091674670340325	1.6167031971037935	0.23651538848846718	-0.0894120519285411	1.7142764642535024	0.174437779667401	-0.06845847709441759	1.7660601805838658	0.2736063060040773	0.1083863052820228	1.8476912982312141	0.30644351251081653	0.34408397005234953	1.9327254048566045	0.26808035939778585	0.3219932680724293	1.9066398460506664	0.023428500784249417	0.5167163534415119	1.8325865927123173	0.25258887048059686
13	0.21666666666666667	-0.0618526772053848	1.683341076952633	0.1514758851544827	-0.08480824201610147	1.6508977562215832	0.1762957146829752	-0.053069906399393116	1.5974212040837727	0.27136585708364475	0.1104331190640881	1.5214013991329967	0.24431458130134226	0.28605443374606515	1.5198038949403265	0.08332669813410741	0.3014820504926547	1.6130701042486162	-0.1220850579654523	0.5744160514559924	1.6346869426850679	0.1385978585869568	-0.09077697221012322	1.7144915727306909	0.1739869155377029	-0.06745981797342691	1.763719467145699	0.2724239861648277	0.10978129893402301	1.8483717336327223	0.30511260130994056	0.344439037510709	1.9384360071554378	0.2662271984992629	0.3240179927482174	1.9065009715221801	0.03998086023039531	0.5039316522126203	1.838065626436154	0.245668092075684
14	0.23333333333333334	-0.06127157482617097	1.685853941847099	0.1511203056142219	-0.08482209929073761	1.653020862640535	0.17254980212989152	-0.05350815869466701	1.5971092274848497	0.26957779608298793	0.11134461232443224	1.5205111491901677	0.2469991209782138	0.2883348045053595	1.5178537331874642	0.08320584873270848	0.30026836332310297	1.6137547528383356	-0.11265925291052269	0.5030088462895971	1.6151965651315192	0.20643633502716713	-0.09007322152582485	1.7143732855418539	0.1720154733707375	-0.06539118305798111	1.763236540706651	0.27016370186987904	0.1082125996579545	1.8486896740488334	0.3093431852971871	0.3411225586918612	1.9376941669867103	0.2624534059168365	0.322911044441211	1.9070791018220128	0.02109177480550398	0.5105207019275428	1.8381198218185906	0.24596404620759912
